<mxfile host="app.diagrams.net" modified="2021-02-07T21:18:34.954Z" agent="5.0 (Windows)" etag="zH-PsFxc23eyOEEx3Exv" version="14.2.9" type="github">
  <diagram id="LtXfjdiNlztNddyJYRsl" name="Page-1">
    <mxGraphModel dx="1422" dy="763" grid="1" gridSize="10" guides="1" tooltips="1" connect="1" arrows="1" fold="1" page="1" pageScale="1" pageWidth="827" pageHeight="1169" math="0" shadow="0">
      <root>
        <mxCell id="0" />
        <mxCell id="1" parent="0" />
        <mxCell id="3RHrD-StrAHebshTQser-72" value="" style="group" vertex="1" connectable="0" parent="1">
          <mxGeometry x="761" y="260" width="440" height="280" as="geometry" />
        </mxCell>
        <mxCell id="3RHrD-StrAHebshTQser-38" value="" style="group;fillColor=#ffffff;perimeterSpacing=1;shadow=0;sketch=0;glass=0;rounded=0;spacingTop=0;labelBorderColor=#000000;labelBackgroundColor=#ffffff;align=center;strokeColor=#000000;container=0;" vertex="1" connectable="0" parent="3RHrD-StrAHebshTQser-72">
          <mxGeometry y="10" width="440" height="280" as="geometry" />
        </mxCell>
        <mxCell id="3RHrD-StrAHebshTQser-39" value="&lt;div&gt;Services&lt;/div&gt;" style="text;html=1;strokeColor=none;fillColor=none;align=center;verticalAlign=middle;whiteSpace=wrap;rounded=0;" vertex="1" parent="3RHrD-StrAHebshTQser-72">
          <mxGeometry x="40" y="10" width="360" height="20" as="geometry" />
        </mxCell>
        <mxCell id="3RHrD-StrAHebshTQser-40" value="Product" style="rounded=0;whiteSpace=wrap;html=1;" vertex="1" parent="3RHrD-StrAHebshTQser-72">
          <mxGeometry x="240" y="50" width="160" height="40" as="geometry" />
        </mxCell>
        <mxCell id="3RHrD-StrAHebshTQser-41" value="Security" style="rounded=0;whiteSpace=wrap;html=1;" vertex="1" parent="3RHrD-StrAHebshTQser-72">
          <mxGeometry x="40" y="50" width="160" height="40" as="geometry" />
        </mxCell>
        <mxCell id="3RHrD-StrAHebshTQser-42" value="Basket" style="rounded=0;whiteSpace=wrap;html=1;" vertex="1" parent="3RHrD-StrAHebshTQser-72">
          <mxGeometry x="140" y="210" width="160" height="40" as="geometry" />
        </mxCell>
        <mxCell id="3RHrD-StrAHebshTQser-75" style="edgeStyle=orthogonalEdgeStyle;rounded=0;jumpStyle=arc;orthogonalLoop=1;jettySize=auto;html=1;exitX=0.5;exitY=1;exitDx=0;exitDy=0;entryX=1;entryY=0.25;entryDx=0;entryDy=0;dashed=1;startArrow=none;startFill=0;endArrow=classic;endFill=1;" edge="1" parent="3RHrD-StrAHebshTQser-72" source="3RHrD-StrAHebshTQser-43" target="3RHrD-StrAHebshTQser-42">
          <mxGeometry relative="1" as="geometry" />
        </mxCell>
        <mxCell id="3RHrD-StrAHebshTQser-43" value="Discount" style="rounded=0;whiteSpace=wrap;html=1;" vertex="1" parent="3RHrD-StrAHebshTQser-72">
          <mxGeometry x="300" y="140" width="100" height="40" as="geometry" />
        </mxCell>
        <mxCell id="3RHrD-StrAHebshTQser-46" value="" style="edgeStyle=orthogonalEdgeStyle;rounded=0;jumpStyle=arc;orthogonalLoop=1;jettySize=auto;html=1;entryX=0.25;entryY=1;entryDx=0;entryDy=0;exitX=1;exitY=0;exitDx=0;exitDy=0;" edge="1" parent="3RHrD-StrAHebshTQser-72" source="3RHrD-StrAHebshTQser-42" target="3RHrD-StrAHebshTQser-43">
          <mxGeometry as="geometry">
            <mxPoint x="300" y="220" as="sourcePoint" />
            <Array as="points">
              <mxPoint x="325" y="210" />
            </Array>
          </mxGeometry>
        </mxCell>
        <mxCell id="3RHrD-StrAHebshTQser-44" value="Billing" style="rounded=0;whiteSpace=wrap;html=1;" vertex="1" parent="3RHrD-StrAHebshTQser-72">
          <mxGeometry x="40" y="140" width="100" height="40" as="geometry" />
        </mxCell>
        <mxCell id="3RHrD-StrAHebshTQser-48" style="edgeStyle=orthogonalEdgeStyle;rounded=0;jumpStyle=arc;orthogonalLoop=1;jettySize=auto;html=1;exitX=0;exitY=0.25;exitDx=0;exitDy=0;entryX=0.5;entryY=1;entryDx=0;entryDy=0;" edge="1" parent="3RHrD-StrAHebshTQser-72" source="3RHrD-StrAHebshTQser-42" target="3RHrD-StrAHebshTQser-44">
          <mxGeometry as="geometry">
            <mxPoint x="110" y="180" as="targetPoint" />
            <Array as="points">
              <mxPoint x="90" y="220" />
            </Array>
          </mxGeometry>
        </mxCell>
        <mxCell id="3RHrD-StrAHebshTQser-76" style="edgeStyle=orthogonalEdgeStyle;rounded=0;jumpStyle=arc;orthogonalLoop=1;jettySize=auto;html=1;exitX=0.75;exitY=1;exitDx=0;exitDy=0;entryX=0.75;entryY=0;entryDx=0;entryDy=0;dashed=1;startArrow=none;startFill=0;endArrow=classic;endFill=1;" edge="1" parent="3RHrD-StrAHebshTQser-72" source="3RHrD-StrAHebshTQser-45" target="3RHrD-StrAHebshTQser-42">
          <mxGeometry relative="1" as="geometry" />
        </mxCell>
        <mxCell id="3RHrD-StrAHebshTQser-45" value="Communication" style="rounded=0;whiteSpace=wrap;html=1;" vertex="1" parent="3RHrD-StrAHebshTQser-72">
          <mxGeometry x="160" y="140" width="120" height="40" as="geometry" />
        </mxCell>
        <mxCell id="3RHrD-StrAHebshTQser-47" value="" style="edgeStyle=orthogonalEdgeStyle;rounded=0;jumpStyle=arc;orthogonalLoop=1;jettySize=auto;html=1;entryX=0.25;entryY=1;entryDx=0;entryDy=0;exitX=0.25;exitY=0;exitDx=0;exitDy=0;" edge="1" parent="3RHrD-StrAHebshTQser-72" source="3RHrD-StrAHebshTQser-42" target="3RHrD-StrAHebshTQser-45">
          <mxGeometry as="geometry">
            <Array as="points">
              <mxPoint x="190" y="210" />
            </Array>
          </mxGeometry>
        </mxCell>
        <mxCell id="3RHrD-StrAHebshTQser-74" style="edgeStyle=orthogonalEdgeStyle;rounded=0;jumpStyle=arc;orthogonalLoop=1;jettySize=auto;html=1;exitX=0.75;exitY=1;exitDx=0;exitDy=0;entryX=0;entryY=0;entryDx=0;entryDy=0;dashed=1;startArrow=none;startFill=0;endArrow=classic;endFill=1;" edge="1" parent="3RHrD-StrAHebshTQser-72" source="3RHrD-StrAHebshTQser-44" target="3RHrD-StrAHebshTQser-42">
          <mxGeometry relative="1" as="geometry">
            <Array as="points">
              <mxPoint x="115" y="210" />
            </Array>
          </mxGeometry>
        </mxCell>
        <mxCell id="3RHrD-StrAHebshTQser-53" value="" style="group" vertex="1" connectable="0" parent="1">
          <mxGeometry x="401" y="90" width="240" height="360" as="geometry" />
        </mxCell>
        <mxCell id="3RHrD-StrAHebshTQser-30" value="" style="group;fillColor=#ffffff;perimeterSpacing=1;shadow=0;sketch=0;glass=0;rounded=0;spacingTop=0;labelBorderColor=#000000;labelBackgroundColor=#ffffff;align=center;strokeColor=#000000;container=0;" vertex="1" connectable="0" parent="3RHrD-StrAHebshTQser-53">
          <mxGeometry width="240" height="360" as="geometry" />
        </mxCell>
        <mxCell id="3RHrD-StrAHebshTQser-31" value="&lt;div align=&quot;right&quot;&gt;Controllers&lt;/div&gt;" style="text;html=1;strokeColor=none;fillColor=none;align=right;verticalAlign=middle;whiteSpace=wrap;rounded=0;" vertex="1" parent="3RHrD-StrAHebshTQser-53">
          <mxGeometry x="40" y="10" width="160" height="20" as="geometry" />
        </mxCell>
        <mxCell id="3RHrD-StrAHebshTQser-32" value="Order" style="rounded=0;whiteSpace=wrap;html=1;" vertex="1" parent="3RHrD-StrAHebshTQser-53">
          <mxGeometry x="40" y="210" width="160" height="40" as="geometry" />
        </mxCell>
        <mxCell id="3RHrD-StrAHebshTQser-33" value="Main" style="rounded=0;whiteSpace=wrap;html=1;" vertex="1" parent="3RHrD-StrAHebshTQser-53">
          <mxGeometry x="40" y="50" width="160" height="40" as="geometry" />
        </mxCell>
        <mxCell id="3RHrD-StrAHebshTQser-34" value="User" style="rounded=0;whiteSpace=wrap;html=1;" vertex="1" parent="3RHrD-StrAHebshTQser-53">
          <mxGeometry x="40" y="130" width="160" height="40" as="geometry" />
        </mxCell>
        <mxCell id="3RHrD-StrAHebshTQser-35" value="Product" style="rounded=0;whiteSpace=wrap;html=1;" vertex="1" parent="3RHrD-StrAHebshTQser-53">
          <mxGeometry x="40" y="290" width="160" height="40" as="geometry" />
        </mxCell>
        <mxCell id="3RHrD-StrAHebshTQser-54" value="" style="group" vertex="1" connectable="0" parent="1">
          <mxGeometry x="41" y="90" width="240" height="360" as="geometry" />
        </mxCell>
        <mxCell id="3RHrD-StrAHebshTQser-1" value="" style="group;fillColor=#ffffff;perimeterSpacing=1;shadow=0;sketch=0;glass=0;rounded=0;spacingTop=0;labelBorderColor=#000000;labelBackgroundColor=#ffffff;align=center;strokeColor=#000000;container=0;" vertex="1" connectable="0" parent="3RHrD-StrAHebshTQser-54">
          <mxGeometry width="240" height="360" as="geometry" />
        </mxCell>
        <mxCell id="3RHrD-StrAHebshTQser-3" value="&lt;div align=&quot;left&quot;&gt;View&lt;/div&gt;" style="text;html=1;strokeColor=none;fillColor=none;align=left;verticalAlign=middle;whiteSpace=wrap;rounded=0;" vertex="1" parent="3RHrD-StrAHebshTQser-54">
          <mxGeometry x="40" y="10" width="160" height="20" as="geometry" />
        </mxCell>
        <mxCell id="3RHrD-StrAHebshTQser-4" value="Order" style="rounded=0;whiteSpace=wrap;html=1;" vertex="1" parent="3RHrD-StrAHebshTQser-54">
          <mxGeometry x="40" y="210" width="160" height="40" as="geometry" />
        </mxCell>
        <mxCell id="3RHrD-StrAHebshTQser-5" value="Main" style="rounded=0;whiteSpace=wrap;html=1;" vertex="1" parent="3RHrD-StrAHebshTQser-54">
          <mxGeometry x="40" y="50" width="160" height="40" as="geometry" />
        </mxCell>
        <mxCell id="3RHrD-StrAHebshTQser-6" value="User" style="rounded=0;whiteSpace=wrap;html=1;" vertex="1" parent="3RHrD-StrAHebshTQser-54">
          <mxGeometry x="40" y="130" width="160" height="40" as="geometry" />
        </mxCell>
        <mxCell id="3RHrD-StrAHebshTQser-7" value="Product" style="rounded=0;whiteSpace=wrap;html=1;" vertex="1" parent="3RHrD-StrAHebshTQser-54">
          <mxGeometry x="40" y="290" width="160" height="40" as="geometry" />
        </mxCell>
        <mxCell id="3RHrD-StrAHebshTQser-51" style="edgeStyle=orthogonalEdgeStyle;rounded=0;jumpStyle=arc;orthogonalLoop=1;jettySize=auto;html=1;exitX=0;exitY=0.5;exitDx=0;exitDy=0;entryX=1;entryY=0.5;entryDx=0;entryDy=0;" edge="1" parent="1" source="3RHrD-StrAHebshTQser-34" target="3RHrD-StrAHebshTQser-6">
          <mxGeometry relative="1" as="geometry" />
        </mxCell>
        <mxCell id="3RHrD-StrAHebshTQser-52" style="edgeStyle=orthogonalEdgeStyle;rounded=0;jumpStyle=arc;orthogonalLoop=1;jettySize=auto;html=1;exitX=0.25;exitY=0;exitDx=0;exitDy=0;entryX=0.5;entryY=1;entryDx=0;entryDy=0;" edge="1" parent="1" source="3RHrD-StrAHebshTQser-34" target="3RHrD-StrAHebshTQser-5">
          <mxGeometry relative="1" as="geometry">
            <Array as="points">
              <mxPoint x="481" y="200" />
              <mxPoint x="161" y="200" />
            </Array>
          </mxGeometry>
        </mxCell>
        <mxCell id="3RHrD-StrAHebshTQser-50" style="edgeStyle=orthogonalEdgeStyle;rounded=0;jumpStyle=arc;orthogonalLoop=1;jettySize=auto;html=1;exitX=0;exitY=0.5;exitDx=0;exitDy=0;entryX=1;entryY=0.5;entryDx=0;entryDy=0;" edge="1" parent="1" source="3RHrD-StrAHebshTQser-33" target="3RHrD-StrAHebshTQser-5">
          <mxGeometry relative="1" as="geometry" />
        </mxCell>
        <mxCell id="3RHrD-StrAHebshTQser-55" style="edgeStyle=orthogonalEdgeStyle;rounded=0;jumpStyle=arc;orthogonalLoop=1;jettySize=auto;html=1;exitX=0;exitY=0.5;exitDx=0;exitDy=0;entryX=1;entryY=0.5;entryDx=0;entryDy=0;" edge="1" parent="1" source="3RHrD-StrAHebshTQser-35" target="3RHrD-StrAHebshTQser-7">
          <mxGeometry relative="1" as="geometry" />
        </mxCell>
        <mxCell id="3RHrD-StrAHebshTQser-56" style="edgeStyle=orthogonalEdgeStyle;rounded=0;jumpStyle=arc;orthogonalLoop=1;jettySize=auto;html=1;exitX=0;exitY=0.5;exitDx=0;exitDy=0;entryX=1;entryY=0.5;entryDx=0;entryDy=0;" edge="1" parent="1" source="3RHrD-StrAHebshTQser-32" target="3RHrD-StrAHebshTQser-4">
          <mxGeometry relative="1" as="geometry" />
        </mxCell>
        <mxCell id="3RHrD-StrAHebshTQser-60" style="edgeStyle=orthogonalEdgeStyle;rounded=0;jumpStyle=arc;orthogonalLoop=1;jettySize=auto;html=1;exitX=0.75;exitY=1;exitDx=0;exitDy=0;entryX=0.5;entryY=1;entryDx=0;entryDy=0;" edge="1" parent="1" source="3RHrD-StrAHebshTQser-35" target="3RHrD-StrAHebshTQser-42">
          <mxGeometry relative="1" as="geometry">
            <Array as="points">
              <mxPoint x="561" y="570" />
              <mxPoint x="981" y="570" />
            </Array>
          </mxGeometry>
        </mxCell>
        <mxCell id="3RHrD-StrAHebshTQser-63" style="edgeStyle=orthogonalEdgeStyle;rounded=0;jumpStyle=arc;orthogonalLoop=1;jettySize=auto;html=1;exitX=1;exitY=0.5;exitDx=0;exitDy=0;" edge="1" parent="1" source="3RHrD-StrAHebshTQser-32">
          <mxGeometry relative="1" as="geometry">
            <mxPoint x="601" y="310" as="sourcePoint" />
            <mxPoint x="801" y="320" as="targetPoint" />
            <Array as="points">
              <mxPoint x="741" y="320" />
              <mxPoint x="741" y="320" />
            </Array>
          </mxGeometry>
        </mxCell>
        <mxCell id="3RHrD-StrAHebshTQser-64" style="edgeStyle=orthogonalEdgeStyle;rounded=0;jumpStyle=arc;orthogonalLoop=1;jettySize=auto;html=1;exitX=0.75;exitY=1;exitDx=0;exitDy=0;entryX=0;entryY=0.5;entryDx=0;entryDy=0;" edge="1" parent="1" source="3RHrD-StrAHebshTQser-32" target="3RHrD-StrAHebshTQser-42">
          <mxGeometry relative="1" as="geometry">
            <Array as="points">
              <mxPoint x="561" y="350" />
              <mxPoint x="681" y="350" />
              <mxPoint x="681" y="490" />
            </Array>
          </mxGeometry>
        </mxCell>
        <mxCell id="3RHrD-StrAHebshTQser-67" style="edgeStyle=orthogonalEdgeStyle;rounded=0;jumpStyle=arc;orthogonalLoop=1;jettySize=auto;html=1;exitX=0;exitY=0.5;exitDx=0;exitDy=0;startArrow=none;startFill=0;endArrow=classic;endFill=1;dashed=1;" edge="1" parent="1" source="3RHrD-StrAHebshTQser-41">
          <mxGeometry relative="1" as="geometry">
            <mxPoint x="601" y="330" as="targetPoint" />
          </mxGeometry>
        </mxCell>
        <mxCell id="3RHrD-StrAHebshTQser-69" style="edgeStyle=orthogonalEdgeStyle;rounded=0;jumpStyle=arc;orthogonalLoop=1;jettySize=auto;html=1;exitX=0;exitY=0.75;exitDx=0;exitDy=0;entryX=0.5;entryY=1;entryDx=0;entryDy=0;dashed=1;startArrow=none;startFill=0;endArrow=classic;endFill=1;" edge="1" parent="1" source="3RHrD-StrAHebshTQser-42" target="3RHrD-StrAHebshTQser-32">
          <mxGeometry relative="1" as="geometry">
            <Array as="points">
              <mxPoint x="671" y="500" />
              <mxPoint x="671" y="360" />
              <mxPoint x="521" y="360" />
            </Array>
          </mxGeometry>
        </mxCell>
        <mxCell id="3RHrD-StrAHebshTQser-70" style="edgeStyle=orthogonalEdgeStyle;rounded=0;jumpStyle=arc;orthogonalLoop=1;jettySize=auto;html=1;exitX=0.25;exitY=0;exitDx=0;exitDy=0;entryX=0.5;entryY=1;entryDx=0;entryDy=0;startArrow=none;startFill=0;endArrow=classic;endFill=1;" edge="1" parent="1" source="3RHrD-StrAHebshTQser-32" target="3RHrD-StrAHebshTQser-6">
          <mxGeometry relative="1" as="geometry" />
        </mxCell>
        <mxCell id="3RHrD-StrAHebshTQser-73" style="edgeStyle=orthogonalEdgeStyle;rounded=0;jumpStyle=arc;orthogonalLoop=1;jettySize=auto;html=1;exitX=0.75;exitY=1;exitDx=0;exitDy=0;dashed=1;startArrow=none;startFill=0;endArrow=classic;endFill=1;entryX=0.5;entryY=1;entryDx=0;entryDy=0;" edge="1" parent="1" source="3RHrD-StrAHebshTQser-42" target="3RHrD-StrAHebshTQser-35">
          <mxGeometry relative="1" as="geometry">
            <mxPoint x="751" y="620" as="targetPoint" />
            <Array as="points">
              <mxPoint x="1021" y="580" />
              <mxPoint x="521" y="580" />
            </Array>
          </mxGeometry>
        </mxCell>
        <mxCell id="3RHrD-StrAHebshTQser-80" value="" style="group" vertex="1" connectable="0" parent="1">
          <mxGeometry x="761" y="60" width="440" height="130" as="geometry" />
        </mxCell>
        <mxCell id="3RHrD-StrAHebshTQser-23" value="" style="group;fillColor=#ffffff;perimeterSpacing=1;shadow=0;sketch=0;glass=0;rounded=0;spacingTop=0;labelBorderColor=#000000;labelBackgroundColor=#ffffff;align=center;strokeColor=#000000;container=0;" vertex="1" connectable="0" parent="3RHrD-StrAHebshTQser-80">
          <mxGeometry width="440" height="130" as="geometry" />
        </mxCell>
        <mxCell id="3RHrD-StrAHebshTQser-24" value="Model" style="text;html=1;strokeColor=none;fillColor=none;align=center;verticalAlign=middle;whiteSpace=wrap;rounded=0;" vertex="1" parent="3RHrD-StrAHebshTQser-80">
          <mxGeometry x="40" y="10" width="360" height="20" as="geometry" />
        </mxCell>
        <mxCell id="3RHrD-StrAHebshTQser-27" value="User" style="rounded=0;whiteSpace=wrap;html=1;" vertex="1" parent="3RHrD-StrAHebshTQser-80">
          <mxGeometry x="40" y="50" width="160" height="40" as="geometry" />
        </mxCell>
        <mxCell id="3RHrD-StrAHebshTQser-28" value="Product" style="rounded=0;whiteSpace=wrap;html=1;" vertex="1" parent="3RHrD-StrAHebshTQser-80">
          <mxGeometry x="240" y="50" width="160" height="40" as="geometry" />
        </mxCell>
        <mxCell id="3RHrD-StrAHebshTQser-77" style="edgeStyle=orthogonalEdgeStyle;rounded=0;jumpStyle=arc;orthogonalLoop=1;jettySize=auto;html=1;exitX=0.25;exitY=0;exitDx=0;exitDy=0;entryX=1;entryY=0;entryDx=0;entryDy=0;dashed=1;startArrow=none;startFill=0;endArrow=classic;endFill=1;" edge="1" parent="1" source="3RHrD-StrAHebshTQser-41" target="3RHrD-StrAHebshTQser-34">
          <mxGeometry relative="1" as="geometry">
            <Array as="points">
              <mxPoint x="841" y="220" />
            </Array>
          </mxGeometry>
        </mxCell>
        <mxCell id="3RHrD-StrAHebshTQser-57" style="edgeStyle=orthogonalEdgeStyle;rounded=0;jumpStyle=arc;orthogonalLoop=1;jettySize=auto;html=1;entryX=0.5;entryY=0;entryDx=0;entryDy=0;exitX=0.75;exitY=0;exitDx=0;exitDy=0;" edge="1" parent="1" source="3RHrD-StrAHebshTQser-34" target="3RHrD-StrAHebshTQser-41">
          <mxGeometry relative="1" as="geometry">
            <Array as="points">
              <mxPoint x="561" y="210" />
              <mxPoint x="881" y="210" />
            </Array>
          </mxGeometry>
        </mxCell>
        <mxCell id="3RHrD-StrAHebshTQser-58" style="edgeStyle=orthogonalEdgeStyle;rounded=0;jumpStyle=arc;orthogonalLoop=1;jettySize=auto;html=1;exitX=1;exitY=0.5;exitDx=0;exitDy=0;entryX=0.5;entryY=1;entryDx=0;entryDy=0;" edge="1" parent="1" source="3RHrD-StrAHebshTQser-35" target="3RHrD-StrAHebshTQser-40">
          <mxGeometry relative="1" as="geometry">
            <Array as="points">
              <mxPoint x="721" y="400" />
              <mxPoint x="721" y="360" />
              <mxPoint x="1081" y="360" />
            </Array>
          </mxGeometry>
        </mxCell>
        <mxCell id="3RHrD-StrAHebshTQser-71" style="edgeStyle=orthogonalEdgeStyle;rounded=0;jumpStyle=arc;orthogonalLoop=1;jettySize=auto;html=1;exitX=0.75;exitY=1;exitDx=0;exitDy=0;entryX=1;entryY=0.75;entryDx=0;entryDy=0;startArrow=none;startFill=0;endArrow=classic;endFill=1;dashed=1;" edge="1" parent="1" source="3RHrD-StrAHebshTQser-40" target="3RHrD-StrAHebshTQser-35">
          <mxGeometry relative="1" as="geometry">
            <Array as="points">
              <mxPoint x="1121" y="370" />
              <mxPoint x="731" y="370" />
              <mxPoint x="731" y="410" />
            </Array>
          </mxGeometry>
        </mxCell>
        <mxCell id="3RHrD-StrAHebshTQser-82" style="edgeStyle=orthogonalEdgeStyle;rounded=0;jumpStyle=arc;orthogonalLoop=1;jettySize=auto;html=1;exitX=0.75;exitY=1;exitDx=0;exitDy=0;entryX=0.75;entryY=0;entryDx=0;entryDy=0;startArrow=none;startFill=0;endArrow=classic;endFill=1;" edge="1" parent="1" source="3RHrD-StrAHebshTQser-27" target="3RHrD-StrAHebshTQser-41">
          <mxGeometry relative="1" as="geometry" />
        </mxCell>
        <mxCell id="3RHrD-StrAHebshTQser-79" style="edgeStyle=orthogonalEdgeStyle;rounded=0;jumpStyle=arc;orthogonalLoop=1;jettySize=auto;html=1;exitX=0.25;exitY=0;exitDx=0;exitDy=0;entryX=1;entryY=0;entryDx=0;entryDy=0;dashed=1;startArrow=none;startFill=0;endArrow=classic;endFill=1;" edge="1" parent="1" source="3RHrD-StrAHebshTQser-40" target="3RHrD-StrAHebshTQser-32">
          <mxGeometry relative="1" as="geometry">
            <Array as="points">
              <mxPoint x="1041" y="250" />
              <mxPoint x="711" y="250" />
              <mxPoint x="711" y="300" />
            </Array>
          </mxGeometry>
        </mxCell>
        <mxCell id="3RHrD-StrAHebshTQser-65" style="edgeStyle=orthogonalEdgeStyle;rounded=0;jumpStyle=arc;orthogonalLoop=1;jettySize=auto;html=1;exitX=0.75;exitY=0;exitDx=0;exitDy=0;entryX=0.5;entryY=0;entryDx=0;entryDy=0;" edge="1" parent="1" source="3RHrD-StrAHebshTQser-32" target="3RHrD-StrAHebshTQser-40">
          <mxGeometry relative="1" as="geometry">
            <Array as="points">
              <mxPoint x="561" y="290" />
              <mxPoint x="701" y="290" />
              <mxPoint x="701" y="240" />
              <mxPoint x="1081" y="240" />
            </Array>
          </mxGeometry>
        </mxCell>
        <mxCell id="3RHrD-StrAHebshTQser-83" style="edgeStyle=orthogonalEdgeStyle;rounded=0;jumpStyle=arc;orthogonalLoop=1;jettySize=auto;html=1;exitX=0.75;exitY=0;exitDx=0;exitDy=0;startArrow=none;startFill=0;endArrow=classic;endFill=1;entryX=1;entryY=0.75;entryDx=0;entryDy=0;" edge="1" parent="1" source="3RHrD-StrAHebshTQser-27" target="3RHrD-StrAHebshTQser-42">
          <mxGeometry relative="1" as="geometry">
            <mxPoint x="1251" y="550" as="targetPoint" />
            <Array as="points">
              <mxPoint x="921" y="40" />
              <mxPoint x="1241" y="40" />
              <mxPoint x="1241" y="500" />
            </Array>
          </mxGeometry>
        </mxCell>
        <mxCell id="3RHrD-StrAHebshTQser-84" style="edgeStyle=orthogonalEdgeStyle;rounded=0;jumpStyle=arc;orthogonalLoop=1;jettySize=auto;html=1;exitX=0.75;exitY=1;exitDx=0;exitDy=0;entryX=0.75;entryY=0;entryDx=0;entryDy=0;startArrow=none;startFill=0;endArrow=classic;endFill=1;" edge="1" parent="1" source="3RHrD-StrAHebshTQser-28" target="3RHrD-StrAHebshTQser-40">
          <mxGeometry relative="1" as="geometry" />
        </mxCell>
        <mxCell id="3RHrD-StrAHebshTQser-85" style="edgeStyle=orthogonalEdgeStyle;rounded=0;jumpStyle=arc;orthogonalLoop=1;jettySize=auto;html=1;exitX=1;exitY=0.75;exitDx=0;exitDy=0;startArrow=none;startFill=0;endArrow=classic;endFill=1;entryX=1;entryY=0.5;entryDx=0;entryDy=0;" edge="1" parent="1" source="3RHrD-StrAHebshTQser-28" target="3RHrD-StrAHebshTQser-42">
          <mxGeometry relative="1" as="geometry">
            <mxPoint x="1231" y="450" as="targetPoint" />
            <Array as="points">
              <mxPoint x="1161" y="120" />
              <mxPoint x="1221" y="120" />
              <mxPoint x="1221" y="490" />
            </Array>
          </mxGeometry>
        </mxCell>
      </root>
    </mxGraphModel>
  </diagram>
</mxfile>
